.
..............................Site Info...........................

 -   http://www.scenetime.com  *_*    

Scenetime .Always on time . friendly online private torrent community ..

     We care to share . Join us on  http://www.scenetime.com 

    Be the first to get new release at  http://www.scenetime.com

        Seed back for speed


 
http://www.imdb.com/title/tt1733125/


description:

Two thousand years ago, Nhagruul the Foul, a sorcerer who reveled in corrupting the innocent and the spread of despair, neared the end of his mortal days and was dismayed. Consumed by hatred for the living, Nhagruul sold his soul to the demon Lords of the abyss so that his malign spirit would survive. In an excruciating ritual, Nhagrulls skin was flayed into pages, his bones hammered into a cover, and his diseased blood became the ink to pen a book most vile. All those exposed to the book were driven to madness or so corrupted by the wicked knowledge contained within that they had no choice but to turn evil. Misery and bloodshed followed the disciples of Nhagruul as they spread their Masters dark dream. Creatures vile and depraved rose from every pit and unclean barrow to partake in the fever of destruction. The cities and kingdoms of Karkoth were consumed by this plague of evil until an order of warriors arose from the ashes. The Knights of the New Sun swore an oath to resurrect hope in the land. The purity of their hearts was so great that Pelor, the God of Light,



Source-dvdracso Thanks




file info
Format                                   : AVI
Format/Info                              : Audio Video Interleave
File size                                : 698 MiB
Duration                                 : 1h 30mn
Overall bit rate                         : 1 083 Kbps

Video
ID                                       : 0
Format                                   : MPEG-4 Visual
Format profile                           : Advanced Simple@L5
Format settings, BVOP                    : 2
Format settings, QPel                    : No
Format settings, GMC                     : No warppoints
Format settings, Matrix                  : Default (H.263)
Codec ID                                 : XVID
Codec ID/Hint                            : XviD
Duration                                 : 1h 30mn
Bit rate                                 : 692 Kbps
Width                                    : 720 pixels
Height                                   : 400 pixels
Display aspect ratio                     : 16:9
Frame rate                               : 23.976 fps
Color space                              : YUV
Chroma subsampling                       : 4:2:0
Bit depth                                : 8 bits
Scan type                                : Progressive
Compression mode                         : Lossy
Bits/(Pixel*Frame)                       : 0.100
Stream size                              : 447 MiB (64%)
Writing library                          : XviD 1.2.1 (UTC 2008-12-04)

Audio
ID                                       : 1
Format                                   : AC-3
Format/Info                              : Audio Coding 3
Mode extension                           : CM (complete main)
Format settings, Endianness              : Big
Codec ID                                 : 2000
Duration                                 : 1h 29mn
Bit rate mode                            : Constant
Bit rate                                 : 384 Kbps
Channel(s)                               : 2 channels
Channel positions                        : Front: L R
Sampling rate                            : 48.0 KHz
Bit depth                                : 16 bits
Compression mode                         : Lossy
Stream size                              : 247 MiB (35%)
Alignment                                : Aligned on interleaves
Interleave, duration                     : 64 ms (1.54 video frames)
Interleave, preload duration             : 192 ms
Title                                    : VTS 06 1 T80 2_0ch 224Kbps DELAY 0ms_audio







Encoder - BallZac



screenies
[IMG]http://lookpic.com/O/i2/1346/5mTmb3BL.png[/IMG]

[IMG]http://lookpic.com/O/i2/616/RpkgHUgd.png[/IMG]

[IMG]http://lookpic.com/O/i2/1047/RrXDKolt.png[/IMG]



Greetz to CM8 Tragedy BBnRG dopeonarope DarkKnight MrSeeN jiinx UNiQUE and to all those who make this possible ;)
And All the ballwashers out there

[IMG]http://i40.photobucket.com/albums/e243/tragedy42069/NewEra1.png[/IMG]